<svg width="47" height="46" viewBox="0 0 47 46" fill="none" xmlns="http://www.w3.org/2000/svg">
<path fill-rule="evenodd" clip-rule="evenodd" d="M42.5765 16.0523H34.4601C30.683 16.059 27.6231 19.0424 27.6163 22.7251C27.6112 26.4161 30.6744 29.4128 34.4601 29.4178H42.5833V30.0042C42.5833 36.4427 38.6801 40.25 32.0749 40.25H14.7601C8.15319 40.25 4.25 36.4427 4.25 30.0042V15.9809C4.25 9.54236 8.15319 5.75 14.7601 5.75H32.0681C38.6733 5.75 42.5765 9.54236 42.5765 15.9809V16.0523ZM13.3341 16.0374H24.1441H24.1509H24.1646C24.9738 16.034 25.6281 15.3912 25.6247 14.6005C25.6212 13.8115 24.9602 13.1736 24.1509 13.1769H13.3341C12.53 13.1802 11.8775 13.8164 11.8741 14.6022C11.8706 15.3912 12.5249 16.034 13.3341 16.0374Z" fill="url(#paint0_linear_31_2837)"/>
<path opacity="0.4" d="M31.1551 23.5686C31.5559 25.3917 33.1543 26.6744 34.9792 26.641H41.2082C41.9675 26.641 42.5834 26.0122 42.5834 25.2349V20.3828C42.5817 19.6072 41.9675 18.9767 41.2082 18.975H34.8325C32.7567 18.9817 31.0801 20.7047 31.0834 22.828C31.0834 23.0766 31.1078 23.3251 31.1551 23.5686Z" fill="url(#paint1_linear_31_2837)"/>
<circle cx="34.9167" cy="22.8083" r="1.91667" fill="url(#paint2_linear_31_2837)"/>
<defs>
<linearGradient id="paint0_linear_31_2837" x1="4.97327" y1="25.2258" x2="41.8609" y2="25.2846" gradientUnits="userSpaceOnUse">
<stop stop-color="#7D8AFF"/>
<stop offset="1" stop-color="#D5A0FF"/>
</linearGradient>
<linearGradient id="paint1_linear_31_2837" x1="31.3004" y1="23.303" x2="42.3666" y2="23.3268" gradientUnits="userSpaceOnUse">
<stop stop-color="#7D8AFF"/>
<stop offset="1" stop-color="#D5A0FF"/>
</linearGradient>
<linearGradient id="paint2_linear_31_2837" x1="33.0723" y1="23.0556" x2="36.7611" y2="23.0609" gradientUnits="userSpaceOnUse">
<stop stop-color="#7D8AFF"/>
<stop offset="1" stop-color="#D5A0FF"/>
</linearGradient>
</defs>
</svg>
